<svg id="Warstwa_1" data-name="Warstwa 1" xmlns="http://www.w3.org/2000/svg" viewBox="0 0 208.85 237.65"><defs><style>.cls-1{fill:#fff;}.cls-2{fill:#231f20;}</style></defs><title>logo4</title><path class="cls-1" d="M402.54,480.57l-.21-118.43L400.24,361h0l-2.13-1.22-.54-.31h0l-99.53-57L193.9,361.91h0l-.21,118.66L296.11,539h0l2,1.14,2-1.14h0ZM300.12,534.35l.12-111.56,98.1-56.15.2,111.6Zm96.08-171.1L298,419.33l-98.17-56.19L298,307.06Zm-198.5,115,.19-111.6,76.45,43.75L296,422.79l.11,111.56Z" transform="translate(-193.69 -302.45)"/><path class="cls-1" d="M333.19,371.12l2.07-1.14-6.9-3.8,6.7-3.69L328.7,359l7.27-4-2.09-1.14-7.27,4-5-2.69,7.27-4-2.08-1.13-7.28,4-5.41-2.93,7.27-4L319.34,346l-7.28,4-5.21-2.83,7.28-4L312,342l-7.27,4-6.33-3.43-6.4,3.56L284.49,342l-2.07,1.15,7.56,4.17-5.14,2.86L277.28,346l-2.06,1.14,7.56,4.17-5.35,3-7.56-4.16-2.06,1.15,7.56,4.16-4.9,2.73L262.92,354l-2.07,1.15,7.56,4.17L261.88,363l6,3.42-7.76,4.27,2,1.17,7.76-4.28,5.07,2.91-7.75,4.27,2,1.16,7.76-4.27,5.27,3-7.76,4.27,2,1.16,7.76-4.27,4.83,2.76-7.76,4.28,2,1.16,7.76-4.27,6.22,3.55,7.24-4,6.9,3.8,2.07-1.14-6.9-3.8,4.92-2.72,6.9,3.8,2.07-1.14-6.9-3.8,5.37-3,6.9,3.8L328,374l-6.89-3.8,5.16-2.85ZM319.05,369h0L317,370.18l-5.37,3-2.07,1.14-3.69,2L297.39,381l-6.21-3.56-4.83-2.76-5.16-3-2.14-1.23-2-1.16h0L274,367.57,266,363l4.53-2.53L274.9,358l2.54-1.41,9.46-5.27,5.15-2.87,6.4-3.56,4.24,2.3,5.69,3.09,1.6.87,2.09,1.13h0l5.41,2.94,2.09,1.13,5,2.7,6.37,3.45-8.75,4.82Z" transform="translate(-193.69 -302.45)"/><path class="cls-1" d="M241,443.2l-16-26V421l16.33,26.49L225,457.58v1.61l.33.53L244,448.17Z" transform="translate(-193.69 -302.45)"/><polygon class="cls-1" points="75.16 178.39 50.82 163.98 50.82 166.3 75.16 180.71 75.16 178.39"/><path class="cls-1" d="M358.34,414.1l-7.44,4.81c-.63-3.09-.38-5.58.76-7.41,1.24-2,3.24-2.78,5.55-3.7a18.75,18.75,0,0,0,7.52-4.63,17.26,17.26,0,0,0,4.12-8.48l-2.4,1.33a14.45,14.45,0,0,1-3.19,5.79,16.72,16.72,0,0,1-6.79,4.13c-2.52,1-4.91,1.95-6.51,4.5s-1.78,5.68-.84,9.63l-5.83,3.78v7.86l-17.4,9.44v9.58l17.4-9.68v6.38l6.52-4v7.16l2-1.09v-7.28l6.53-4v-6.14L373.21,424V414.8l-14.87,8.06Zm-15,24.66-15.4,8.57v-5l15.4-8.36Zm13-14.81v13.22l-11,6.71V424.93l11-7.15Zm14.87-5.79v4.68l-12.87,7v-4.74Z" transform="translate(-193.69 -302.45)"/><path class="cls-1" d="M365.36,484.37,330.22,504a2.57,2.57,0,0,1-3.83-2.24v-1a2.6,2.6,0,0,1,1.32-2.25l35.35-19.66v0l7.78-4.33a4.56,4.56,0,0,0,2.35-4v-1a4.57,4.57,0,0,0-6.8-4L331,485.31h0l-.81.46a2.58,2.58,0,0,1-3.83-2.25v-1a2.57,2.57,0,0,1,1.32-2.24l21.81-12.14a4.58,4.58,0,0,0,2.35-4l-.07-7.53h0l-2,1.1.05,5.46v1a2.55,2.55,0,0,1-1.32,2.25l-10.78,6h0l-11,6.14a4.56,4.56,0,0,0-2.35,4v1A4.6,4.6,0,0,0,329,488.1a4.56,4.56,0,0,0,2.23-.59l35.35-19.75h0l.81-.45a2.57,2.57,0,0,1,3.83,2.24v1a2.6,2.6,0,0,1-1.32,2.25l-35.35,19.66v0l-7.78,4.33a4.56,4.56,0,0,0-2.35,4v1a4.6,4.6,0,0,0,4.57,4.58,4.56,4.56,0,0,0,2.23-.59l34.17-19.09Z" transform="translate(-193.69 -302.45)"/><path class="cls-2" d="M400.92,365.7" transform="translate(-193.69 -302.45)"/></svg>